M48
; DRILL file {KiCad (6.0.6)} date Sat Sep 17 17:37:17 2022
; FORMAT={-:-/ absolute / metric / decimal}
; #@! TF.CreationDate,2022-09-17T17:37:17+02:00
; #@! TF.GenerationSoftware,Kicad,Pcbnew,(6.0.6)
; #@! TF.FileFunction,Plated,1,2,PTH
FMAT,2
METRIC
; #@! TA.AperFunction,Plated,PTH,ViaDrill
T1C0.400
; #@! TA.AperFunction,Plated,PTH,ComponentDrill
T2C0.650
; #@! TA.AperFunction,Plated,PTH,ComponentDrill
T3C0.800
; #@! TA.AperFunction,Plated,PTH,ComponentDrill
T4C1.000
; #@! TA.AperFunction,Plated,PTH,ComponentDrill
T5C1.100
%
G90
G05
T1
X137.088Y-106.098
X138.288Y-101.04
X139.609Y-100.355
X142.641Y-118.341
X142.708Y-108.914
X143.548Y-96.748
X143.648Y-114.448
X143.648Y-125.648
X144.448Y-78.478
X144.648Y-115.048
X145.243Y-100.892
X146.924Y-118.058
X148.194Y-113.74
X148.448Y-119.582
X149.462Y-100.356
X149.718Y-114.908
X150.948Y-120.348
X150.988Y-124.953
X151.242Y-97.23
X152.258Y-114.756
X152.258Y-118.312
X152.677Y-105.988
X153.528Y-120.09
X153.782Y-113.74
X154.448Y-93.848
X154.544Y-97.484
X154.838Y-101.356
X155.148Y-80.048
X156.068Y-114.756
X156.424Y-106.882
X156.83Y-93.674
X157.287Y-101.472
X157.748Y-125.248
X157.871Y-95.554
X158.05Y-121.94
X158.354Y-102.818
X158.354Y-115.01
X158.837Y-108.928
X158.862Y-118.312
X158.888Y-120.938
X158.964Y-90.728
X159.848Y-87.648
X160.111Y-112.978
X160.132Y-93.928
X160.148Y-95.848
X160.158Y-105.358
X160.343Y-115.103
X160.386Y-100.024
X161.25Y-106.573
X161.402Y-104.088
X161.529Y-108.457
X161.688Y-117.458
X162.164Y-103.072
X162.672Y-111.022
X163.012Y-107.303
X163.434Y-86.308
X163.434Y-90.118
X163.434Y-93.928
X163.434Y-97.738
X163.434Y-112.978
X164.588Y-110.568
X165.212Y-103.326
X166.076Y-105.104
X166.099Y-101.992
X166.431Y-93.674
T3
X147.188Y-104.098
X147.188Y-106.638
X147.188Y-109.178
X147.188Y-111.718
X154.808Y-104.098
X154.808Y-106.638
X154.808Y-109.178
X154.808Y-111.718
T4
X140.398Y-76.458
X141.668Y-103.358
X142.938Y-76.458
X147.168Y-74.878
X149.708Y-74.878
X152.248Y-74.878
X154.788Y-74.878
T5
X138.838Y-110.507
X141.532Y-107.813
T2
G00X146.668Y-123.488
M15
G01X146.668Y-124.588
M16
G05
G00X146.668Y-127.918
M15
G01X146.668Y-128.518
M16
G05
G00X155.308Y-123.488
M15
G01X155.308Y-124.588
M16
G05
G00X155.308Y-127.918
M15
G01X155.308Y-128.518
M16
G05
T0
M30
