%TF.GenerationSoftware,KiCad,Pcbnew,(6.0.6)*%
%TF.CreationDate,2022-09-17T17:37:14+02:00*%
%TF.ProjectId,Tiny handheld,54696e79-2068-4616-9e64-68656c642e6b,1.0*%
%TF.SameCoordinates,Original*%
%TF.FileFunction,Soldermask,Top*%
%TF.FilePolarity,Negative*%
%FSLAX46Y46*%
G04 Gerber Fmt 4.6, Leading zero omitted, Abs format (unit mm)*
G04 Created by KiCad (PCBNEW (6.0.6)) date 2022-09-17 17:37:14*
%MOMM*%
%LPD*%
G01*
G04 APERTURE LIST*
G04 Aperture macros list*
%AMRoundRect*
0 Rectangle with rounded corners*
0 $1 Rounding radius*
0 $2 $3 $4 $5 $6 $7 $8 $9 X,Y pos of 4 corners*
0 Add a 4 corners polygon primitive as box body*
4,1,4,$2,$3,$4,$5,$6,$7,$8,$9,$2,$3,0*
0 Add four circle primitives for the rounded corners*
1,1,$1+$1,$2,$3*
1,1,$1+$1,$4,$5*
1,1,$1+$1,$6,$7*
1,1,$1+$1,$8,$9*
0 Add four rect primitives between the rounded corners*
20,1,$1+$1,$2,$3,$4,$5,0*
20,1,$1+$1,$4,$5,$6,$7,0*
20,1,$1+$1,$6,$7,$8,$9,0*
20,1,$1+$1,$8,$9,$2,$3,0*%
%AMFreePoly0*
4,1,22,0.550000,-0.750000,0.000000,-0.750000,0.000000,-0.745033,-0.079941,-0.743568,-0.215256,-0.701293,-0.333266,-0.622738,-0.424486,-0.514219,-0.481581,-0.384460,-0.499164,-0.250000,-0.500000,-0.250000,-0.500000,0.250000,-0.499164,0.250000,-0.499963,0.256109,-0.478152,0.396186,-0.417904,0.524511,-0.324060,0.630769,-0.204165,0.706417,-0.067858,0.745374,0.000000,0.744959,0.000000,0.750000,
0.550000,0.750000,0.550000,-0.750000,0.550000,-0.750000,$1*%
%AMFreePoly1*
4,1,20,0.000000,0.744959,0.073905,0.744508,0.209726,0.703889,0.328688,0.626782,0.421226,0.519385,0.479903,0.390333,0.500000,0.250000,0.500000,-0.250000,0.499851,-0.262216,0.476331,-0.402017,0.414519,-0.529596,0.319384,-0.634700,0.198574,-0.708877,0.061801,-0.746166,0.000000,-0.745033,0.000000,-0.750000,-0.550000,-0.750000,-0.550000,0.750000,0.000000,0.750000,0.000000,0.744959,
0.000000,0.744959,$1*%
G04 Aperture macros list end*
%ADD10FreePoly0,0.000000*%
%ADD11R,1.000000X1.500000*%
%ADD12FreePoly1,0.000000*%
%ADD13R,1.700000X1.700000*%
%ADD14O,1.700000X1.700000*%
%ADD15R,1.200000X2.500000*%
%ADD16RoundRect,0.007800X-0.437200X-0.122200X0.437200X-0.122200X0.437200X0.122200X-0.437200X0.122200X0*%
%ADD17RoundRect,0.007800X0.122200X-0.437200X0.122200X0.437200X-0.122200X0.437200X-0.122200X-0.437200X0*%
%ADD18R,2.600000X2.600000*%
%ADD19R,1.600000X1.600000*%
%ADD20O,1.600000X1.600000*%
%ADD21R,1.600000X1.400000*%
%ADD22C,3.500000*%
%ADD23C,1.200000*%
%ADD24RoundRect,0.460375X0.067352X-0.718420X0.718420X-0.067352X-0.067352X0.718420X-0.718420X0.067352X0*%
%ADD25RoundRect,0.285750X0.224506X-0.628618X0.628618X-0.224506X-0.224506X0.628618X-0.628618X0.224506X0*%
%ADD26RoundRect,0.269875X0.246957X-0.628618X0.628618X-0.246957X-0.246957X0.628618X-0.628618X0.246957X0*%
%ADD27C,0.700000*%
%ADD28R,0.600000X1.450000*%
%ADD29R,0.300000X1.450000*%
%ADD30O,1.050000X2.100000*%
%ADD31C,1.508000*%
G04 APERTURE END LIST*
D10*
%TO.C,JP1*%
X161118000Y-100913000D03*
D11*
X162418000Y-100913000D03*
D12*
X163718000Y-100913000D03*
%TD*%
D13*
%TO.C,J1*%
X154788000Y-74878000D03*
D14*
X152248000Y-74878000D03*
X149708000Y-74878000D03*
X147168000Y-74878000D03*
%TD*%
D15*
%TO.C,S3*%
X153488000Y-114673000D03*
X150988000Y-114673000D03*
X148488000Y-114673000D03*
X153488000Y-120173000D03*
X150988000Y-120173000D03*
X148488000Y-120173000D03*
%TD*%
D10*
%TO.C,JP3*%
X145243000Y-100913000D03*
D11*
X146543000Y-100913000D03*
D12*
X147843000Y-100913000D03*
%TD*%
D16*
%TO.C,U2*%
X149078000Y-106898000D03*
X149078000Y-107398000D03*
X149078000Y-107898000D03*
X149078000Y-108398000D03*
X149078000Y-108898000D03*
D17*
X149988000Y-109808000D03*
X150488000Y-109808000D03*
X150988000Y-109808000D03*
X151488000Y-109808000D03*
X151988000Y-109808000D03*
D16*
X152898000Y-108898000D03*
X152898000Y-108398000D03*
X152898000Y-107898000D03*
X152898000Y-107398000D03*
X152898000Y-106898000D03*
D17*
X151988000Y-105988000D03*
X151488000Y-105988000D03*
X150988000Y-105988000D03*
X150488000Y-105988000D03*
X149988000Y-105988000D03*
D18*
X150988000Y-107898000D03*
%TD*%
D19*
%TO.C,U1*%
X147188000Y-104098000D03*
D20*
X147188000Y-106638000D03*
X147188000Y-109178000D03*
X147188000Y-111718000D03*
X154808000Y-111718000D03*
X154808000Y-109178000D03*
X154808000Y-106638000D03*
X154808000Y-104098000D03*
%TD*%
D10*
%TO.C,JP4*%
X136988000Y-100913000D03*
D11*
X138288000Y-100913000D03*
D12*
X139588000Y-100913000D03*
%TD*%
D10*
%TO.C,JP2*%
X153498000Y-100913000D03*
D11*
X154798000Y-100913000D03*
D12*
X156098000Y-100913000D03*
%TD*%
D21*
%TO.C,S1*%
X165383000Y-110668000D03*
X158183000Y-110668000D03*
X165383000Y-107668000D03*
X158183000Y-107668000D03*
%TD*%
D22*
%TO.C,REF\u002A\u002A*%
X136950000Y-76110000D03*
%TD*%
D23*
%TO.C,S2*%
X141532101Y-107813025D03*
X138838025Y-110507101D03*
D24*
X137311381Y-112033745D03*
X143058745Y-106286381D03*
D25*
X141352496Y-113201178D03*
D26*
X136143948Y-107992630D03*
D25*
X144226178Y-110327496D03*
D26*
X142789337Y-111764337D03*
X139017630Y-105118948D03*
X137580789Y-106555789D03*
%TD*%
D27*
%TO.C,J3*%
X153878000Y-124568000D03*
X148098000Y-124568000D03*
D28*
X147738000Y-123123000D03*
X148538000Y-123123000D03*
D29*
X149738000Y-123123000D03*
X150738000Y-123123000D03*
X151238000Y-123123000D03*
X152238000Y-123123000D03*
D28*
X154238000Y-123123000D03*
X153438000Y-123123000D03*
D29*
X152738000Y-123123000D03*
X151738000Y-123123000D03*
X150238000Y-123123000D03*
X149238000Y-123123000D03*
D30*
X146668000Y-124038000D03*
X155308000Y-124038000D03*
X146668000Y-128218000D03*
X155308000Y-128218000D03*
%TD*%
D22*
%TO.C,REF\u002A\u002A*%
X163770000Y-127000000D03*
%TD*%
D31*
%TO.C,BT1*%
X140398000Y-76458000D03*
X142938000Y-76458000D03*
X141668000Y-103358000D03*
%TD*%
M02*
