%TF.GenerationSoftware,KiCad,Pcbnew,(6.0.6)*%
%TF.CreationDate,2022-09-17T14:28:24+02:00*%
%TF.ProjectId,Tiny handheld,54696e79-2068-4616-9e64-68656c642e6b,1.0*%
%TF.SameCoordinates,Original*%
%TF.FileFunction,Paste,Top*%
%TF.FilePolarity,Positive*%
%FSLAX46Y46*%
G04 Gerber Fmt 4.6, Leading zero omitted, Abs format (unit mm)*
G04 Created by KiCad (PCBNEW (6.0.6)) date 2022-09-17 14:28:24*
%MOMM*%
%LPD*%
G01*
G04 APERTURE LIST*
G04 Aperture macros list*
%AMRoundRect*
0 Rectangle with rounded corners*
0 $1 Rounding radius*
0 $2 $3 $4 $5 $6 $7 $8 $9 X,Y pos of 4 corners*
0 Add a 4 corners polygon primitive as box body*
4,1,4,$2,$3,$4,$5,$6,$7,$8,$9,$2,$3,0*
0 Add four circle primitives for the rounded corners*
1,1,$1+$1,$2,$3*
1,1,$1+$1,$4,$5*
1,1,$1+$1,$6,$7*
1,1,$1+$1,$8,$9*
0 Add four rect primitives between the rounded corners*
20,1,$1+$1,$2,$3,$4,$5,0*
20,1,$1+$1,$4,$5,$6,$7,0*
20,1,$1+$1,$6,$7,$8,$9,0*
20,1,$1+$1,$8,$9,$2,$3,0*%
G04 Aperture macros list end*
%ADD10C,0.010000*%
%ADD11R,1.200000X2.500000*%
%ADD12RoundRect,0.007800X0.122200X-0.437200X0.122200X0.437200X-0.122200X0.437200X-0.122200X-0.437200X0*%
%ADD13RoundRect,0.007800X-0.437200X-0.122200X0.437200X-0.122200X0.437200X0.122200X-0.437200X0.122200X0*%
%ADD14R,1.600000X1.400000*%
%ADD15RoundRect,0.269875X0.246957X-0.628618X0.628618X-0.246957X-0.246957X0.628618X-0.628618X0.246957X0*%
%ADD16RoundRect,0.285750X0.224506X-0.628618X0.628618X-0.224506X-0.224506X0.628618X-0.628618X0.224506X0*%
%ADD17RoundRect,0.460375X0.067352X-0.718420X0.718420X-0.067352X-0.067352X0.718420X-0.718420X0.067352X0*%
%ADD18R,0.300000X1.450000*%
%ADD19R,0.600000X1.450000*%
G04 APERTURE END LIST*
%TO.C,U2*%
G36*
X151808000Y-108718000D02*
G01*
X150168000Y-108718000D01*
X150168000Y-107078000D01*
X151808000Y-107078000D01*
X151808000Y-108718000D01*
G37*
D10*
X151808000Y-108718000D02*
X150168000Y-108718000D01*
X150168000Y-107078000D01*
X151808000Y-107078000D01*
X151808000Y-108718000D01*
%TD*%
D11*
%TO.C,S3*%
X148488000Y-120173000D03*
X150988000Y-120173000D03*
X153488000Y-120173000D03*
X148488000Y-114673000D03*
X150988000Y-114673000D03*
X153488000Y-114673000D03*
%TD*%
D12*
%TO.C,U2*%
X149988000Y-105988000D03*
X150488000Y-105988000D03*
X150988000Y-105988000D03*
X151488000Y-105988000D03*
X151988000Y-105988000D03*
D13*
X152898000Y-106898000D03*
X152898000Y-107398000D03*
X152898000Y-107898000D03*
X152898000Y-108398000D03*
X152898000Y-108898000D03*
D12*
X151988000Y-109808000D03*
X151488000Y-109808000D03*
X150988000Y-109808000D03*
X150488000Y-109808000D03*
X149988000Y-109808000D03*
D13*
X149078000Y-108898000D03*
X149078000Y-108398000D03*
X149078000Y-107898000D03*
X149078000Y-107398000D03*
X149078000Y-106898000D03*
%TD*%
D14*
%TO.C,S1*%
X158183000Y-107668000D03*
X165383000Y-107668000D03*
X158183000Y-110668000D03*
X165383000Y-110668000D03*
%TD*%
D15*
%TO.C,S2*%
X137580789Y-106555789D03*
X139017630Y-105118948D03*
X142789337Y-111764337D03*
D16*
X144226178Y-110327496D03*
D15*
X136143948Y-107992630D03*
D16*
X141352496Y-113201178D03*
D17*
X143058745Y-106286381D03*
X137311381Y-112033745D03*
%TD*%
D18*
%TO.C,J3*%
X149238000Y-123123000D03*
X150238000Y-123123000D03*
X151738000Y-123123000D03*
X152738000Y-123123000D03*
D19*
X153438000Y-123123000D03*
X154238000Y-123123000D03*
D18*
X152238000Y-123123000D03*
X151238000Y-123123000D03*
X150738000Y-123123000D03*
X149738000Y-123123000D03*
D19*
X148538000Y-123123000D03*
X147738000Y-123123000D03*
%TD*%
M02*
