%TF.GenerationSoftware,KiCad,Pcbnew,(6.0.6)*%
%TF.CreationDate,2022-09-17T17:37:14+02:00*%
%TF.ProjectId,Tiny handheld,54696e79-2068-4616-9e64-68656c642e6b,1.0*%
%TF.SameCoordinates,Original*%
%TF.FileFunction,Soldermask,Bot*%
%TF.FilePolarity,Negative*%
%FSLAX46Y46*%
G04 Gerber Fmt 4.6, Leading zero omitted, Abs format (unit mm)*
G04 Created by KiCad (PCBNEW (6.0.6)) date 2022-09-17 17:37:14*
%MOMM*%
%LPD*%
G01*
G04 APERTURE LIST*
G04 Aperture macros list*
%AMRoundRect*
0 Rectangle with rounded corners*
0 $1 Rounding radius*
0 $2 $3 $4 $5 $6 $7 $8 $9 X,Y pos of 4 corners*
0 Add a 4 corners polygon primitive as box body*
4,1,4,$2,$3,$4,$5,$6,$7,$8,$9,$2,$3,0*
0 Add four circle primitives for the rounded corners*
1,1,$1+$1,$2,$3*
1,1,$1+$1,$4,$5*
1,1,$1+$1,$6,$7*
1,1,$1+$1,$8,$9*
0 Add four rect primitives between the rounded corners*
20,1,$1+$1,$2,$3,$4,$5,0*
20,1,$1+$1,$4,$5,$6,$7,0*
20,1,$1+$1,$6,$7,$8,$9,0*
20,1,$1+$1,$8,$9,$2,$3,0*%
G04 Aperture macros list end*
%ADD10R,1.700000X1.700000*%
%ADD11O,1.700000X1.700000*%
%ADD12R,1.600000X1.600000*%
%ADD13O,1.600000X1.600000*%
%ADD14C,3.500000*%
%ADD15C,1.200000*%
%ADD16C,0.700000*%
%ADD17O,1.050000X2.100000*%
%ADD18C,1.508000*%
%ADD19RoundRect,0.250000X0.400000X0.625000X-0.400000X0.625000X-0.400000X-0.625000X0.400000X-0.625000X0*%
%ADD20RoundRect,0.250000X0.412500X0.650000X-0.412500X0.650000X-0.412500X-0.650000X0.412500X-0.650000X0*%
%ADD21R,1.200000X2.500000*%
%ADD22RoundRect,0.250001X0.462499X1.074999X-0.462499X1.074999X-0.462499X-1.074999X0.462499X-1.074999X0*%
%ADD23R,2.500000X2.500000*%
%ADD24RoundRect,0.150000X-0.150000X0.825000X-0.150000X-0.825000X0.150000X-0.825000X0.150000X0.825000X0*%
G04 APERTURE END LIST*
D10*
%TO.C,J1*%
X154788000Y-74878000D03*
D11*
X152248000Y-74878000D03*
X149708000Y-74878000D03*
X147168000Y-74878000D03*
%TD*%
D12*
%TO.C,U1*%
X147188000Y-104098000D03*
D13*
X147188000Y-106638000D03*
X147188000Y-109178000D03*
X147188000Y-111718000D03*
X154808000Y-111718000D03*
X154808000Y-109178000D03*
X154808000Y-106638000D03*
X154808000Y-104098000D03*
%TD*%
D14*
%TO.C,REF\u002A\u002A*%
X136950000Y-76110000D03*
%TD*%
D15*
%TO.C,S2*%
X141532101Y-107813025D03*
X138838025Y-110507101D03*
%TD*%
D16*
%TO.C,J3*%
X153878000Y-124568000D03*
X148098000Y-124568000D03*
D17*
X146668000Y-124038000D03*
X155308000Y-124038000D03*
X146668000Y-128218000D03*
X155308000Y-128218000D03*
%TD*%
D14*
%TO.C,REF\u002A\u002A*%
X163770000Y-127000000D03*
%TD*%
D18*
%TO.C,BT1*%
X140398000Y-76458000D03*
X142938000Y-76458000D03*
X141668000Y-103358000D03*
%TD*%
D19*
%TO.C,R3*%
X166508000Y-116788000D03*
X163408000Y-116788000D03*
%TD*%
%TO.C,R9*%
X166508000Y-86308000D03*
X163408000Y-86308000D03*
%TD*%
D20*
%TO.C,C3*%
X154455500Y-93928000D03*
X151330500Y-93928000D03*
%TD*%
D19*
%TO.C,R7*%
X166508000Y-112978000D03*
X163408000Y-112978000D03*
%TD*%
%TO.C,R5*%
X160110620Y-116788000D03*
X157010620Y-116788000D03*
%TD*%
%TO.C,R11*%
X160158000Y-109168000D03*
X157058000Y-109168000D03*
%TD*%
D21*
%TO.C,S4*%
X164283000Y-80803000D03*
X161783000Y-80803000D03*
X159283000Y-80803000D03*
X164283000Y-75303000D03*
X161783000Y-75303000D03*
X159283000Y-75303000D03*
%TD*%
D19*
%TO.C,R12*%
X166655380Y-101548000D03*
X163555380Y-101548000D03*
%TD*%
%TO.C,R1*%
X160110620Y-112978000D03*
X157010620Y-112978000D03*
%TD*%
%TO.C,R14*%
X166508000Y-93928000D03*
X163408000Y-93928000D03*
%TD*%
D20*
%TO.C,C5*%
X155090500Y-79958000D03*
X151965500Y-79958000D03*
%TD*%
D19*
%TO.C,R10*%
X166655380Y-105358000D03*
X163555380Y-105358000D03*
%TD*%
D22*
%TO.C,D1*%
X152475500Y-111708000D03*
X149500500Y-111708000D03*
%TD*%
D19*
%TO.C,R6*%
X160158000Y-105358000D03*
X157058000Y-105358000D03*
%TD*%
%TO.C,R13*%
X166508000Y-97738000D03*
X163408000Y-97738000D03*
%TD*%
D22*
%TO.C,D3*%
X152475500Y-115518000D03*
X149500500Y-115518000D03*
%TD*%
D23*
%TO.C,LS1*%
X158874750Y-90578000D03*
X152874750Y-84578000D03*
X152874750Y-90578000D03*
X158874750Y-84578000D03*
%TD*%
D22*
%TO.C,D2*%
X146125500Y-115518000D03*
X143150500Y-115518000D03*
%TD*%
D20*
%TO.C,C1*%
X154455500Y-97738000D03*
X151330500Y-97738000D03*
%TD*%
D19*
%TO.C,R8*%
X166508000Y-109168000D03*
X163408000Y-109168000D03*
%TD*%
D20*
%TO.C,C2*%
X160170500Y-93928000D03*
X157045500Y-93928000D03*
%TD*%
D24*
%TO.C,U3*%
X149083000Y-102883000D03*
X150353000Y-102883000D03*
X151623000Y-102883000D03*
X152893000Y-102883000D03*
X152893000Y-107833000D03*
X151623000Y-107833000D03*
X150353000Y-107833000D03*
X149083000Y-107833000D03*
%TD*%
D19*
%TO.C,R4*%
X166508000Y-90118000D03*
X163408000Y-90118000D03*
%TD*%
D20*
%TO.C,C4*%
X160170500Y-97738000D03*
X157045500Y-97738000D03*
%TD*%
D19*
%TO.C,R2*%
X160158000Y-101548000D03*
X157058000Y-101548000D03*
%TD*%
M02*
